<svg width="93" height="94" viewBox="0 0 93 94" fill="none" xmlns="http://www.w3.org/2000/svg">
<g clip-path="url(#clip0)">
<path d="M27.8 28L21.925 12.35H21.825C21.875 12.8667 21.9167 13.5667 21.95 14.45C21.9833 15.3167 22 16.225 22 17.175V28H19.925V10.15H23.25L28.75 24.775H28.85L34.45 10.15H37.75V28H35.525V17.025C35.525 16.1583 35.5417 15.3 35.575 14.45C35.625 13.6 35.6667 12.9083 35.7 12.375H35.6L29.65 28H27.8ZM58.4307 19.05C58.4307 20.9 58.114 22.5167 57.4807 23.9C56.864 25.2667 55.9473 26.3333 54.7307 27.1C53.514 27.8667 52.0057 28.25 50.2057 28.25C48.3557 28.25 46.814 27.8667 45.5807 27.1C44.364 26.3333 43.4557 25.2583 42.8557 23.875C42.2557 22.4917 41.9557 20.875 41.9557 19.025C41.9557 17.1917 42.2557 15.5917 42.8557 14.225C43.4557 12.8583 44.364 11.7917 45.5807 11.025C46.814 10.2583 48.364 9.875 50.2307 9.875C52.014 9.875 53.514 10.2583 54.7307 11.025C55.9473 11.775 56.864 12.8417 57.4807 14.225C58.114 15.5917 58.4307 17.2 58.4307 19.05ZM44.3307 19.05C44.3307 21.3 44.8057 23.075 45.7557 24.375C46.7057 25.6583 48.189 26.3 50.2057 26.3C52.239 26.3 53.7223 25.6583 54.6557 24.375C55.589 23.075 56.0557 21.3 56.0557 19.05C56.0557 16.8 55.589 15.0417 54.6557 13.775C53.7223 12.4917 52.2473 11.85 50.2307 11.85C48.214 11.85 46.7223 12.4917 45.7557 13.775C44.8057 15.0417 44.3307 16.8 44.3307 19.05ZM33.575 56H31.325V47.675H22.175V56H19.925V38.15H22.175V45.7H31.325V38.15H33.575V56ZM48.6803 56H38.7053V38.15H48.6803V40.125H40.9553V45.7H48.2303V47.65H40.9553V54.025H48.6803V56ZM25.575 84H23.325V68.125H17.75V66.15H31.125V68.125H25.575V84ZM43.5088 84L41.3588 78.475H34.2838L32.1588 84H29.8838L36.8588 66.075H38.8838L45.8338 84H43.5088ZM38.6838 71.075C38.6338 70.9417 38.5505 70.7 38.4338 70.35C38.3171 70 38.2005 69.6417 38.0838 69.275C37.9838 68.8917 37.9005 68.6 37.8338 68.4C37.7171 68.9167 37.5838 69.425 37.4338 69.925C37.2838 70.4083 37.1588 70.7917 37.0588 71.075L35.0338 76.475H40.6838L38.6838 71.075Z" fill="black"/>
</g>
<path d="M2 92V2H90L53.8571 92H2Z" stroke="black" stroke-width="3"/>
<defs>
<clipPath id="clip0">
<rect width="60" height="82" fill="white" transform="translate(9 9)"/>
</clipPath>
</defs>
</svg>
